HIERARCHY
ROOT Hips
{
  OFFSET -10.0563 7.73376 -472.55
  CHANNELS 6 Xposition Yposition Zposition Zrotation Xrotation Yrotation
  JOINT Spine
  {
    OFFSET 0 0 0
    CHANNELS 3 Zrotation Xrotation Yrotation
    JOINT Spine1
    {
      OFFSET 19 0 0
      CHANNELS 3 Zrotation Xrotation Yrotation
      JOINT Neck
      {
        OFFSET 22.5 0.6 0
        CHANNELS 3 Zrotation Xrotation Yrotation
        JOINT Head
        {
          OFFSET 14 0.0308777 0
          CHANNELS 3 Zrotation Xrotation Yrotation
          End Site
          {
            OFFSET 17 0 0
          }
        }
      }
      JOINT LeftShoulder
      {
        OFFSET 19.8 3.7 4.3
        CHANNELS 3 Zrotation Xrotation Yrotation
        JOINT LeftArm
        {
          OFFSET 8 0 0
          CHANNELS 3 Zrotation Xrotation Yrotation
          JOINT LeftForeArm
          {
            OFFSET 15.2 0 0
            CHANNELS 3 Zrotation Xrotation Yrotation
            JOINT LeftHand
            {
              OFFSET 17.8 0 0
              CHANNELS 3 Zrotation Xrotation Yrotation
              End Site
              {
                OFFSET 7.2 0 0
              }
            }
          }
        }
      }
      JOINT RightShoulder
      {
        OFFSET 19.8 3.7 -4.3
        CHANNELS 3 Zrotation Xrotation Yrotation
        JOINT RightArm
        {
          OFFSET 8 0 0.151654
          CHANNELS 3 Zrotation Xrotation Yrotation
          JOINT RightForeArm
          {
            OFFSET 15.2 0 0
            CHANNELS 3 Zrotation Xrotation Yrotation
            JOINT RightHand
            {
              OFFSET 17.8 0 0
              CHANNELS 3 Zrotation Xrotation Yrotation
              End Site
              {
                OFFSET 7.2 0 0
              }
            }
          }
        }
      }
    }
  }
  JOINT LeftUpLeg
  {
    OFFSET 5.98425 -7.666 4.78879
    CHANNELS 3 Zrotation Xrotation Yrotation
    JOINT LeftLeg
    {
      OFFSET 16 0 0
      CHANNELS 3 Zrotation Xrotation Yrotation
      JOINT LeftFoot
      {
        OFFSET 18 0 0
        CHANNELS 3 Zrotation Xrotation Yrotation
        End Site
        {
          OFFSET 0 -10.8 0
        }
      }
    }
  }
  JOINT RightUpLeg
  {
    OFFSET 5.98425 -7.66598 -4.78879
    CHANNELS 3 Zrotation Xrotation Yrotation
    JOINT RightLeg
    {
      OFFSET 16 0 0
      CHANNELS 3 Zrotation Xrotation Yrotation
      JOINT RightFoot
      {
        OFFSET 18 0 0
        CHANNELS 3 Zrotation Xrotation Yrotation
        End Site
        {
          OFFSET 0 -10.8 0
        }
      }
    }
  }
  JOINT Tail
  {
    OFFSET 6.83696 -0.722574 0
    CHANNELS 3 Zrotation Xrotation Yrotation
    JOINT Tail1
    {
      OFFSET 12 0 0
      CHANNELS 3 Zrotation Xrotation Yrotation
      End Site
      {
        OFFSET 12 0 0
      }
    }
  }
}
MOTION
Frames:	12
Frame Time:	0.0166667
-28.0901 6.38883 -8.59893 -179.161 -77.5263 -86.1343 -135.867 0.769949 -1.64894 13.161 1.43271 3.03881 6.87797 -0.820434 -5.48543 -108.826 86.6576 127.203 -109.902 -35.7398 -138.476 107.649 -66.3097 -138.744 -69.4065 9.49991 0.0257106 3.15967 0.862988 -17.0462 75.7404 -30.0916 46.3911 100.864 -63.0909 -6.63425 -79.6903 -15.1798 0.965089 4.68317 0.0823056 -6.15899 -164.917 64.3753 27.8994 151.201 46.7523 2.08778 -5.40279 1.86737 17.4869 -89.0294 -78.2372 17.7173 156.131 -45.1435 -7.91962 -46.3665 0.469838 -33.2163 98.4252 5.63593 -40.0533 4.92623 -4.88926 14.5263 
-28.0997 6.39138 -8.59312 -179.578 -77.5372 -86.581 -135.962 0.731412 -1.67504 13.2763 1.40276 3.09854 6.80283 -0.431557 -5.67828 -113.869 87.1066 131.782 -109.893 -35.7095 -138.511 107.845 -66.2484 -138.644 -69.3705 9.48854 0.0354458 3.12546 0.867476 -17.0836 75.7041 -30.0943 46.2681 100.895 -62.9001 -6.5509 -79.7769 -15.1063 0.902392 4.7606 0.0789351 -6.21491 -164.934 64.2317 27.8628 151.224 46.8142 2.07891 -5.35175 1.88084 17.4858 -89.7997 -77.9707 17.093 156.354 -44.353 -7.75399 -46.1733 0.411716 -33.3079 98.4282 5.67237 -40.19 4.92287 -4.89471 14.5364 
-28.1409 6.37337 -8.58631 -179.883 -77.4941 -86.8915 -136.054 0.765297 -1.6441 13.4297 1.42608 3.08135 6.74563 -0.0791831 -5.84048 -120.039 87.6004 137.518 -109.903 -35.7026 -138.551 108.05 -66.1873 -138.504 -69.3797 9.49492 0.0132332 3.17661 0.854729 -16.974 75.7189 -30.1052 46.3462 100.864 -62.9744 -6.36308 -79.8413 -14.9667 0.809207 4.85402 0.0726345 -6.13777 -164.888 64.2675 27.7917 151.153 46.8429 2.07372 -5.29059 1.90269 17.5219 -85.6931 -78.7364 20.8042 155.722 -46.4062 -8.2377 -47.0754 0.666965 -33.0062 98.4924 5.65156 -40.2545 4.90716 -4.88075 14.5182 
-28.152 6.36667 -8.59548 -179.99 -77.4797 -86.9871 -136.11 0.817132 -1.55505 13.503 1.44342 2.99815 6.74136 0.311502 -5.99105 -131.261 88.1881 148.194 -109.878 -35.6719 -138.544 108.445 -66.2548 -138.399 -69.3586 9.39096 0.0702542 3.23943 0.853114 -16.9626 75.7897 -30.0764 46.5317 100.655 -63.1637 -6.33975 -79.8035 -14.8539 0.761111 4.9577 0.0633736 -6.08214 -164.845 64.2407 27.7353 151.119 46.7321 2.06001 -5.21515 1.9206 17.5486 -83.6886 -78.8185 22.6582 155.401 -47.2481 -8.45174 -47.5055 0.773341 -32.7485 98.5136 5.63162 -40.2698 4.90943 -4.87428 14.5131 
-28.1259 6.37782 -8.59387 179.954 -77.4803 -87.0646 -136.196 0.858383 -1.44401 13.6338 1.44525 2.85135 6.66188 0.746008 -6.23437 -143.043 88.2849 159.444 -109.908 -35.6793 -138.612 108.815 -66.2121 -138.179 -69.2487 9.36694 0.103549 3.18958 0.861187 -16.9695 75.7928 -30.1268 46.6593 100.479 -63.3444 -6.27757 -79.7127 -14.8437 0.706923 4.946 0.0773236 -6.13673 -164.732 64.1415 27.6683 151.21 46.6991 2.04742 -5.28156 1.89829 17.5047 -84.1405 -79.3339 22.1376 155.557 -47.181 -8.41699 -47.0339 0.6837 -33.129 98.5095 5.65835 -40.2586 4.91486 -4.88005 14.5106 
-28.1103 6.37076 -8.57423 179.945 -77.4706 -87.1194 -136.316 0.883017 -1.40313 13.8175 1.46037 2.76389 6.49907 1.20183 -6.51055 -155.416 88.2796 171.613 -109.961 -35.718 -138.679 109.19 -66.2271 -137.869 -69.2306 9.32457 0.0966341 3.24147 0.872726 -17.1204 75.772 -30.2198 46.8007 100.381 -63.4455 -6.28737 -79.7006 -14.7927 0.67022 4.99772 0.0745431 -6.20088 -164.907 64.1171 27.8644 151.298 46.7949 2.05725 -5.36055 1.8961 17.5545 -86.6922 -79.0574 19.7796 156.034 -45.6914 -8.06761 -46.4954 0.542445 -33.4524 98.5353 5.66254 -40.2218 4.88816 -4.86088 14.4996 
-28.13 6.336 -8.56566 179.926 -77.4004 -87.1433 -136.248 0.887384 -1.33586 13.7593 1.43921 2.65736 6.46227 1.71439 -6.82807 -168.587 88.189 -175.475 -109.959 -35.7518 -138.606 109.482 -66.4673 -137.856 -69.3101 8.85403 0.201509 3.59362 0.861789 -17.2608 75.7662 -30.2276 46.7982 100.436 -63.5787 -6.16346 -79.7232 -14.6492 0.634833 5.10627 0.0562777 -6.06769 -165.153 64.2273 28.1694 151.265 46.8805 2.07464 -5.38891 1.92135 17.688 -85.1874 -78.871 21.1559 155.786 -46.0969 -8.19763 -47.1196 0.6821 -33.1112 98.6409 5.58458 -40.1768 4.83744 -4.81601 14.4632 
-28.1334 6.32392 -8.57839 -179.984 -77.352 -86.9952 -136.079 0.919581 -1.16679 13.5817 1.4046 2.43982 6.46886 2.17257 -7.04128 177.822 88.0909 -162.53 -109.947 -35.8292 -138.42 109.561 -66.676 -137.908 -69.2373 9.01316 0.311249 3.22578 0.888917 -17.1092 75.7763 -30.2189 46.8136 100.507 -63.7725 -6.00807 -79.6856 -14.6083 0.551239 5.00839 0.0737557 -5.97233 -165.137 64.3339 28.2356 151.201 46.8598 2.08374 -5.4183 1.91442 17.6884 -82.6593 -79.2546 23.3787 155.332 -47.4821 -8.53965 -47.6429 0.828134 -32.8814 98.7009 5.49222 -40.13 4.82261 -4.79422 14.4462 
-28.1075 6.33917 -8.58616 -179.885 -77.3553 -86.8627 -135.917 0.940202 -1.04096 13.3807 1.37488 2.28263 6.35842 2.56387 -7.25083 167.612 87.9349 -152.618 -109.915 -35.8117 -138.367 109.147 -66.6182 -138.097 -69.12 9.275 0.271917 2.86312 0.92408 -17.0984 75.7521 -30.2518 46.8038 100.611 -63.7984 -6.04749 -79.5839 -14.6657 0.547786 4.89013 0.0926871 -6.01297 -165.006 64.3051 28.1596 151.231 46.817 2.08523 -5.45809 1.88094 17.5819 -84.2879 -79.3707 21.8181 155.6 -46.9409 -8.382 -47.0488 0.690994 -33.2162 98.69 5.47184 -40.1222 4.82598 -4.80117 14.4637 
-28.1073 6.33543 -8.57566 -179.693 -77.3462 -86.6905 -135.782 0.935128 -1.05029 13.1866 1.3765 2.22146 6.20798 3.03782 -7.64052 167.135 87.6226 -151.949 -109.868 -35.6986 -138.465 108.072 -66.3386 -138.661 -69.2392 9.53216 0.115673 2.81501 0.911675 -16.9775 75.7243 -30.245 46.6892 100.968 -63.5952 -6.10668 -79.6298 -14.7567 0.667928 4.91775 0.0811389 -6.01023 -165.062 64.4163 28.2792 151.242 46.895 2.10023 -5.54207 1.86236 17.5613 -84.8597 -79.4721 21.2997 155.641 -46.8816 -8.36965 -46.9828 0.679072 -33.2923 98.6904 5.50098 -40.0947 4.81753 -4.80842 14.4724 
-28.1058 6.33309 -8.57343 -179.416 -77.3674 -86.4171 -135.766 0.962434 -1.09166 13.1189 1.42193 2.24888 6.09425 3.41825 -7.90185 154.617 87.4093 -139.335 -109.811 -35.5956 -138.517 107.448 -66.0561 -138.836 -69.3209 9.82795 -0.0409007 2.72821 0.903032 -16.8279 75.7169 -30.2163 46.5968 101.299 -63.3505 -6.05017 -79.7559 -14.8524 0.745472 4.92658 0.0726731 -6.00853 -165.206 64.4746 28.3687 151.237 46.8927 2.11191 -5.54054 1.8621 17.5684 -86.9555 -78.8255 19.4293 155.919 -45.8963 -8.12567 -46.8652 0.629366 -33.276 98.651 5.52377 -40.0287 4.83964 -4.81455 14.4541 
-28.0832 6.359 -8.5943 -179.06 -77.4103 -86.0459 -135.77 1.00583 -1.09292 13.1213 1.46831 2.24241 5.95581 3.74479 -8.15698 145.328 87.158 -130.296 -109.8 -35.5821 -138.512 107.826 -65.9647 -138.42 -69.1638 9.39753 -0.11469 3.09989 0.910306 -17.1292 75.741 -30.253 46.7668 101.056 -63.4773 -6.37404 -79.6252 -14.9524 0.828722 4.85106 0.0760725 -6.05133 -164.979 64.4227 28.0618 151.242 46.7617 2.10226 -5.46732 1.8471 17.4611 -90.347 -78.1054 16.3104 156.404 -44.3785 -7.74959 -46.1847 0.435648 -33.4827 98.5748 5.55931 -39.9692 4.88364 -4.83626 14.4686 
